REM DIRINDEX 1\2\3,1\2\4,1\2\5,1\2\6
REM DIRNAME cjc157,folder01,folder02,folder03,folder04,folder05
TITLE ""
FILE "109 109.mp3" MP3
  TRACK 01 AUDIO
    TITLE "0:"
    INDEX 01 00:00:00
  TRACK 02 AUDIO
    TITLE "3:cjc157_4037"
    INDEX 01 00:00:11
  TRACK 03 AUDIO
    TITLE "0:"
    INDEX 01 00:01:17
  TRACK 04 AUDIO
    TITLE "4:cjc157_4038"
    INDEX 01 00:01:60
  TRACK 05 AUDIO
    TITLE "0:"
    INDEX 01 00:03:02
  TRACK 06 AUDIO
    TITLE "5:cjc157_4039"
    INDEX 01 00:03:45
  TRACK 07 AUDIO
    TITLE "0:"
    INDEX 01 00:05:22
  TRACK 08 AUDIO
    TITLE "5:cjc157_4040"
    INDEX 01 00:05:73
  TRACK 09 AUDIO
    TITLE "0:"
    INDEX 01 00:08:34
  TRACK 10 AUDIO
    TITLE "3:cjc157_4041"
    INDEX 01 00:09:06
  TRACK 11 AUDIO
    TITLE "0:"
    INDEX 01 00:10:12
  TRACK 12 AUDIO
    TITLE "4:cjc157_4042"
    INDEX 01 00:10:59
  TRACK 13 AUDIO
    TITLE "0:"
    INDEX 01 00:11:66
  TRACK 14 AUDIO
    TITLE "5:cjc157_4043"
    INDEX 01 00:12:34
  TRACK 15 AUDIO
    TITLE "0:"
    INDEX 01 00:14:23
  TRACK 16 AUDIO
    TITLE "5:cjc157_4044"
    INDEX 01 00:14:70
  TRACK 17 AUDIO
    TITLE "0:"
    INDEX 01 00:17:21
  TRACK 18 AUDIO
    TITLE "3:cjc157_4045"
    INDEX 01 00:17:65
  TRACK 19 AUDIO
    TITLE "0:"
    INDEX 01 00:19:30
  TRACK 20 AUDIO
    TITLE "4:cjc157_4046"
    INDEX 01 00:20:00
  TRACK 21 AUDIO
    TITLE "0:"
    INDEX 01 00:21:13
  TRACK 22 AUDIO
    TITLE "5:cjc157_4047"
    INDEX 01 00:21:57
  TRACK 23 AUDIO
    TITLE "0:"
    INDEX 01 00:24:33
  TRACK 24 AUDIO
    TITLE "3:cjc157_4048"
    INDEX 01 00:25:07
  TRACK 25 AUDIO
    TITLE "0:"
    INDEX 01 00:26:09
  TRACK 26 AUDIO
    TITLE "4:cjc157_4049"
    INDEX 01 00:26:56
  TRACK 27 AUDIO
    TITLE "0:"
    INDEX 01 00:27:61
  TRACK 28 AUDIO
    TITLE "5:cjc157_4050"
    INDEX 01 00:28:35
  TRACK 29 AUDIO
    TITLE "0:"
    INDEX 01 00:30:46
  TRACK 30 AUDIO
    TITLE "5:cjc157_4051"
    INDEX 01 00:31:16
  TRACK 31 AUDIO
    TITLE "0:"
    INDEX 01 00:32:41
  TRACK 32 AUDIO
    TITLE "5:cjc157_4052"
    INDEX 01 00:33:15
  TRACK 33 AUDIO
    TITLE "0:"
    INDEX 01 00:35:19
  TRACK 34 AUDIO
    TITLE "3:cjc157_4053"
    INDEX 01 00:35:59
  TRACK 35 AUDIO
    TITLE "0:"
    INDEX 01 00:37:20
  TRACK 36 AUDIO
    TITLE "4:cjc157_4054"
    INDEX 01 00:37:69
  TRACK 37 AUDIO
    TITLE "0:"
    INDEX 01 00:39:07
  TRACK 38 AUDIO
    TITLE "5:cjc157_4055"
    INDEX 01 00:39:51
  TRACK 39 AUDIO
    TITLE "0:"
    INDEX 01 00:42:04
  TRACK 40 AUDIO
    TITLE "5:cjc157_4056"
    INDEX 01 00:42:51
  TRACK 41 AUDIO
    TITLE "0:"
    INDEX 01 00:44:24
  TRACK 42 AUDIO
    TITLE "3:cjc157_4057"
    INDEX 01 00:44:67
  TRACK 43 AUDIO
    TITLE "0:"
    INDEX 01 00:46:29
  TRACK 44 AUDIO
    TITLE "4:cjc157_4058"
    INDEX 01 00:47:01
  TRACK 45 AUDIO
    TITLE "0:"
    INDEX 01 00:48:18
  TRACK 46 AUDIO
    TITLE "5:cjc157_4059"
    INDEX 01 00:48:61
  TRACK 47 AUDIO
    TITLE "0:"
    INDEX 01 00:50:25
  TRACK 48 AUDIO
    TITLE "5:cjc157_4060"
    INDEX 01 00:50:70
  TRACK 49 AUDIO
    TITLE "0:"
    INDEX 01 00:52:59
  TRACK 50 AUDIO
    TITLE "3:cjc157_4061"
    INDEX 01 00:53:29
  TRACK 51 AUDIO
    TITLE "0:"
    INDEX 01 00:54:46
  TRACK 52 AUDIO
    TITLE "4:cjc157_4062"
    INDEX 01 00:55:14
  TRACK 53 AUDIO
    TITLE "0:"
    INDEX 01 00:56:27
  TRACK 54 AUDIO
    TITLE "5:cjc157_4063"
    INDEX 01 00:56:72
  TRACK 55 AUDIO
    TITLE "0:"
    INDEX 01 00:58:40
  TRACK 56 AUDIO
    TITLE "3:cjc157_4064"
    INDEX 01 00:59:06
  TRACK 57 AUDIO
    TITLE "0:"
    INDEX 01 01:00:55
  TRACK 58 AUDIO
    TITLE "4:cjc157_4065"
    INDEX 01 01:01:27
  TRACK 59 AUDIO
    TITLE "0:"
    INDEX 01 01:02:38
  TRACK 60 AUDIO
    TITLE "5:cjc157_4066"
    INDEX 01 01:03:08
  TRACK 61 AUDIO
    TITLE "0:"
    INDEX 01 01:05:50
  TRACK 62 AUDIO
    TITLE "5:cjc157_4067"
    INDEX 01 01:06:20
  TRACK 63 AUDIO
    TITLE "0:"
    INDEX 01 01:08:01
  TRACK 64 AUDIO
    TITLE "3:cjc157_4068"
    INDEX 01 01:08:48
  TRACK 65 AUDIO
    TITLE "0:"
    INDEX 01 01:09:71
  TRACK 66 AUDIO
    TITLE "4:cjc157_4069"
    INDEX 01 01:10:37
  TRACK 67 AUDIO
    TITLE "0:"
    INDEX 01 01:11:45
  TRACK 68 AUDIO
    TITLE "5:cjc157_4070"
    INDEX 01 01:12:21
  TRACK 69 AUDIO
    TITLE "0:"
    INDEX 01 01:14:33
  TRACK 70 AUDIO
    TITLE "5:cjc157_4071"
    INDEX 01 01:15:01
  TRACK 71 AUDIO
    TITLE "0:"
    INDEX 01 01:17:10
  TRACK 72 AUDIO
    TITLE "3:cjc157_4072"
    INDEX 01 01:17:55
  TRACK 73 AUDIO
    TITLE "0:"
    INDEX 01 01:19:03
  TRACK 74 AUDIO
    TITLE "4:cjc157_4073"
    INDEX 01 01:19:42
  TRACK 75 AUDIO
    TITLE "0:"
    INDEX 01 01:20:44
  TRACK 76 AUDIO
    TITLE "5:cjc157_4074"
    INDEX 01 01:21:16
  TRACK 77 AUDIO
    TITLE "0:"
    INDEX 01 01:23:60
